# xmcd
#
# Track frame offsets:
#	225
#	11822
#	22470
#	35097
#	48047
#	58840
#	72053
#	85116
#	96180
#	110551
#	123681
#	138595
#	149816
#	162196
#	175910
#	186758
#	197194
#	210142
#	222669
#	235147
#	248349
#	258016
#	271025
#	281973
#	295184
#	306722
#	321974
#	333038
#	344553
#
# Disc length: 4753 seconds
#
# Revision: 1
# Processed by: cddbd v1.5.2PL0 Copyright (c) Steve Scherf et al.
# Submitted via: audiograbber 1.83.01
#
DISCID=c9128e1d
DTITLE=Various Artist - 78 RPM R&B Vocal Groups - vol. 4
DYEAR=1900
DGENRE=Vocal Harmony
TTITLE0=Ted Lewis and the Dixie Four - The Lonesome Road (Columbia, 1930)
TTITLE1=Foursome - Sweet Potato Swing (Decca, 1937)
TTITLE2=Buddy Johnson and the Mack Sisters - Stop Pretending (So Hip You See) (De
TTITLE2=cca, 1939)
TTITLE3=Skeets Tolbert and the Gentlemen of Swing - W.P.A. (Decca, 1940)
TTITLE4=Skeets Tolbert and the Gentlemen of Swing - Those Draftin' Blues (Decca, 
TTITLE4=1941)
TTITLE5=Piccadilly Pipers (Bonnie Davis) - Let Me Play With Your Poodle (Savoy,
TTITLE5=1946)
TTITLE6=Bill Johnson and his Musical Notes - You Didn't Have to Say I Love You (R
TTITLE6=CA, 1947)
TTITLE7=Mello Larks - Fat Man Blues (United Artists, 1947)
TTITLE8=Bill Johnson and his Musical Notes - Half a Love (RCA, 1947)
TTITLE9=Caldwells - I Don't Worry Anymore (RCA, 1947)
TTITLE10=Paul Breckenridge and the Four Heavenly Knights - I Shall Not Be Moved (
TTITLE10=King, 1947)
TTITLE11=Five Blazes - Every Little Dream (Aristocrat, 1947)
TTITLE12=Deep River Boys - I Wanna Sleep (RCA, 1948)
TTITLE13=Bill Johnson and his Musical Notes - Believe Me, Beloved (RCA, 1948)
TTITLE14=Four Jacks - Swing Low, Sweet Chariot (Allen, 1949)
TTITLE15=James Quintet - I'm Just a Fool (Derby, 1949)
TTITLE16=Cap-Tans - I'm So Crazy For Love (Dot, 1950)
TTITLE17=Keys - A Stairway to the Stars (London, 1950)
TTITLE18=Cap-Tans - With All My Love (Dot, 1950)
TTITLE19=Ray-O-Vacs - Hot Dog (Regent, 1951)
TTITLE20=Deep River Boys - My Old Home Town (Select, 1952)
TTITLE21=Eddie Carter Quartet - Don't Turn Your Back On Me (MGM, 1953)
TTITLE22=Five Keys - I'm Alone (Capitol, 1954)
TTITLE23=Sister Rosetta Tharpe and the Sy Oliver Singers - In Bethlehem (Decca, 1
TTITLE23=954)
TTITLE24=Roamers - I'll Never Get Over You (Savoy, 1954)
TTITLE25=Counts - Darling Dear (Dot, 1954)
TTITLE26=Jimmy Sweeney and the Varieteers - I've Got a Woman's Love (Hickory, 195
TTITLE26=4)
TTITLE27=Do Re Me Trio - I Don't Want to Set the World On Fire (Coral, 1954)
TTITLE28=Roy Milton and the Miltones - Fools Are Getting Scarcer (DooTone, 1955)
EXTD=
EXTT0=
EXTT1=
EXTT2=
EXTT3=
EXTT4=
EXTT5=
EXTT6=
EXTT7=
EXTT8=
EXTT9=
EXTT10=
EXTT11=
EXTT12=
EXTT13=
EXTT14=
EXTT15=
EXTT16=
EXTT17=
EXTT18=
EXTT19=
EXTT20=
EXTT21=
EXTT22=
EXTT23=
EXTT24=
EXTT25=
EXTT26=
EXTT27=
EXTT28=
PLAYORDER=
